<?xml version="1.0" encoding="utf-8"?>
<!-- Generator: Adobe Illustrator 19.0.0, SVG Export Plug-In . SVG Version: 6.00 Build 0)  -->
<svg version="1.1" id="layer" xmlns="http://www.w3.org/2000/svg" xmlns:xlink="http://www.w3.org/1999/xlink" x="0px" y="0px"
	 viewBox="-153 -46 652 652" style="enable-background:new -153 -46 652 652;" xml:space="preserve">
<style type="text/css">
	.st0{fill:#00A8AB;}
	.st1{fill:#434241;}
</style>
<polygon class="st0" points="88.7,328.2 85.8,326.9 98.4,297.4 101.3,298.6 "/>
<path class="st1" d="M122,315.9l-3.3-7.3l-3.2,7.3H122z M120.3,304.1l8.4,19.1h-3.5l-1.9-4.3h-9.2l-1.9,4.3h-3.4l8.4-19.1H120.3z
	 M138.6,307.3c-0.6,0.4-0.8,1-0.8,1.7c0,0.7,0.3,1.3,0.9,1.7c0.6,0.4,1.9,0.9,3.8,1.3c2,0.5,3.4,1.1,4.4,2c1,0.9,1.5,2.1,1.5,3.8
	c0,1.7-0.6,3-1.9,4.1c-1.3,1-2.9,1.6-4.9,1.6c-3,0-5.6-1-7.9-3.1l2-2.4c1.9,1.7,3.9,2.5,6,2.5c1,0,1.9-0.2,2.5-0.7
	c0.6-0.5,0.9-1,0.9-1.8c0-0.7-0.3-1.3-0.9-1.7c-0.6-0.4-1.6-0.8-3-1.1c-1.4-0.3-2.5-0.6-3.2-0.9c-0.7-0.3-1.4-0.6-1.9-1.1
	c-1.1-0.9-1.7-2.1-1.7-3.8c0-1.7,0.6-3.1,1.8-4.1c1.2-1,2.8-1.5,4.7-1.5c2.6,0,4.9,0.7,7,2.2l-1.8,2.6c-1.6-1.2-3.3-1.8-5.2-1.8
	C139.9,306.6,139.2,306.9,138.6,307.3 M159.4,307.3c-0.6,0.4-0.8,1-0.8,1.7c0,0.7,0.3,1.3,0.9,1.7c0.6,0.4,1.9,0.9,3.8,1.3
	c2,0.5,3.4,1.1,4.4,2c1,0.9,1.5,2.1,1.5,3.8c0,1.7-0.6,3-1.9,4.1c-1.3,1-2.9,1.6-4.9,1.6c-3,0-5.6-1-7.9-3.1l2-2.4
	c1.9,1.7,3.9,2.5,6,2.5c1,0,1.9-0.2,2.5-0.7c0.6-0.5,0.9-1,0.9-1.8c0-0.7-0.3-1.3-0.9-1.7c-0.6-0.4-1.6-0.8-3-1.1
	c-1.4-0.3-2.5-0.6-3.2-0.9c-0.7-0.3-1.4-0.6-1.9-1.1c-1.1-0.9-1.7-2.1-1.7-3.8c0-1.7,0.6-3.1,1.8-4.1c1.2-1,2.8-1.5,4.7-1.5
	c2.6,0,4.9,0.7,7,2.2l-1.8,2.6c-1.6-1.2-3.3-1.8-5.2-1.8C160.7,306.6,160,306.9,159.4,307.3 M190,304.1v3h-10.2v5h9.1v2.9h-9.1v5.1
	h10.5v3h-13.7v-19.1H190z M205.5,307.1v16.1h-3.2v-16.1h-5.8v-2.9h14.8v2.9H205.5z M236.7,321.6l-6.6-13.2v14.9h-3.2v-19.1h5l5.8,12
	l5.8-12h5v19.1h-3.2v-14.9l-6.7,13.2H236.7z M267.9,315.9l-3.3-7.3l-3.2,7.3H267.9z M266.2,304.1l8.4,19.1h-3.5l-1.9-4.3H260
	l-1.9,4.3h-3.4l8.4-19.1H266.2z M295.2,318.4v-14.3h3.2v19.1h-3.5l-10.8-13.9v13.9h-3.2v-19.1h3.2L295.2,318.4z M317.9,315.9
	l-3.3-7.3l-3.2,7.3H317.9z M316.2,304.1l8.4,19.1h-3.5l-1.9-4.3H310l-1.9,4.3h-3.4l8.4-19.1H316.2z M343.7,313.9h3.2v6.5
	c-1.8,2-4.4,3-7.7,3c-2.8,0-5.2-0.9-7.1-2.8s-2.9-4.2-2.9-7c0-2.8,1-5.2,2.9-7.1c1.9-1.9,4.3-2.8,7-2.8c2.7,0,5,0.8,6.9,2.4
	l-1.7,2.5c-0.7-0.6-1.5-1.1-2.3-1.3c-0.8-0.2-1.6-0.4-2.6-0.4c-1.9,0-3.6,0.6-4.9,1.9c-1.3,1.3-2,2.9-2,4.9c0,2,0.6,3.7,1.9,4.9
	c1.3,1.2,2.8,1.8,4.6,1.8c1.8,0,3.3-0.4,4.5-1.2V313.9z M367.7,304.1v3h-10.2v5h9.1v2.9h-9.1v5.1H368v3h-13.7v-19.1H367.7z
	 M385.5,321.6l-6.6-13.2v14.9h-3.2v-19.1h5l5.8,12l5.8-12h5v19.1H394v-14.9l-6.7,13.2H385.5z M419.4,304.1v3h-10.2v5h9.1v2.9h-9.1
	v5.1h10.5v3H406v-19.1H419.4z M441.6,318.4v-14.3h3.2v19.1h-3.5l-10.8-13.9v13.9h-3.2v-19.1h3.2L441.6,318.4z M461.1,307.1v16.1
	h-3.2v-16.1h-5.8v-2.9h14.8v2.9H461.1z M-51.6,224.8v26.8c0,6.8-1.9,12-5.6,15.7c-3.7,3.7-8.5,5.5-14.1,5.5
	c-5.7,0-10.5-1.8-14.3-5.5c-3.8-3.7-5.8-8.8-5.8-15.3v-27.2h8v26.1c0,4.4,1.1,7.9,3.2,10.5c2.1,2.6,5,3.9,8.7,3.9
	c3.7,0,6.6-1.2,8.7-3.7c2.1-2.5,3.2-5.9,3.2-10.3v-26.5H-51.6z M44.4,224.8v26.8c0,6.8-1.9,12-5.6,15.7c-3.7,3.7-8.5,5.5-14.1,5.5
	c-5.7,0-10.5-1.8-14.3-5.5c-3.8-3.7-5.8-8.8-5.8-15.3v-27.2h8v26.1c0,4.4,1.1,7.9,3.2,10.5c2.1,2.6,5.1,3.9,8.7,3.9
	c3.7,0,6.6-1.2,8.7-3.7c2.1-2.5,3.2-5.9,3.2-10.3v-26.5H44.4z M85,246.9c1.6-1.4,2.4-3.6,2.4-6.7s-0.8-5.2-2.5-6.3
	c-1.7-1.2-4.6-1.7-8.9-1.7H65.9V249h9.9C80.3,249,83.3,248.3,85,246.9 M95.6,240.2c0,7.8-3.4,12.7-10.2,14.7l12.4,17.1H87.6
	l-11.3-15.9H65.9v15.9h-8v-47.2h17.5c7.2,0,12.4,1.2,15.5,3.6C94,231,95.6,234.9,95.6,240.2 M187.1,249.1h8v16.1
	c-4.5,4.9-10.8,7.4-19.1,7.4c-7,0-12.8-2.3-17.5-6.9c-4.7-4.6-7-10.4-7-17.4s2.4-12.9,7.2-17.5c4.8-4.7,10.6-7,17.4-7
	c6.8,0,12.4,2,16.9,5.9l-4.3,6.1c-1.8-1.6-3.7-2.7-5.6-3.3c-1.9-0.6-4-0.9-6.5-0.9c-4.8,0-8.8,1.5-12,4.6c-3.2,3.1-4.9,7.1-4.9,12.2
	c0,5,1.6,9,4.7,12.1s7,4.6,11.4,4.6c4.5,0,8.2-1,11.2-2.9V249.1z M233.6,246.9c1.6-1.4,2.4-3.6,2.4-6.7s-0.8-5.2-2.5-6.3
	c-1.7-1.2-4.6-1.7-8.9-1.7h-10.1V249h9.9C229,249,232,248.3,233.6,246.9 M244.2,240.2c0,7.8-3.4,12.7-10.2,14.7l12.4,17.1h-10.1
	L225,256.2h-10.5v15.9h-8v-47.2h17.5c7.2,0,12.4,1.2,15.5,3.6C242.7,231,244.2,234.9,244.2,240.2 M290.6,236c-3.2-3.3-7.2-5-11.8-5
	c-4.7,0-8.6,1.7-11.8,5c-3.2,3.3-4.8,7.4-4.8,12.1c0,4.8,1.6,8.8,4.8,12.1c3.2,3.3,7.2,5,11.8,5c4.7,0,8.6-1.7,11.8-5
	c3.2-3.3,4.8-7.4,4.8-12.1C295.5,243.4,293.9,239.4,290.6,236 M296.5,265.6c-4.8,4.7-10.7,7-17.7,7s-12.9-2.3-17.7-7
	c-4.8-4.7-7.2-10.5-7.2-17.4c0-6.9,2.4-12.8,7.2-17.4c4.8-4.7,10.7-7,17.7-7s12.9,2.3,17.7,7c4.8,4.7,7.2,10.5,7.2,17.4
	C303.6,255.1,301.2,260.9,296.5,265.6 M328,258.8l10.5-33.9h7.2l10.6,33.9l11.8-33.9h8.6L360.2,272h-7.9l-9.9-32.3h-0.5l-9.9,32.3
	H324l-16.5-47.1h8.6L328,258.8z M428.8,272.1v-47.2h8v20.4h23.4v-20.4h8v47.2h-8v-19.3h-23.4v19.3H428.8z M-107.9,252.6H-124v19.3
	h-7.9v-46.9h30.2l-5.5,7.4H-124v12.9h21.5L-107.9,252.6z M-11.1,232.1h-8.5v39.6h-7.9v-39.6h-14.2v-7.2h36L-11.1,232.1z
	 M117.5,264.3h25.8l-5.6,7.4h-28.1v-46.9h32.8l-5.6,7.4h-19.3v12.4h22.1l-5.5,7h-16.7V264.3z M411.8,232.1h-8.7v39.6h-7.9v-39.6H381
	v-7.2h36.2L411.8,232.1z"/>
</svg>
